<?xml version="1.0" standalone="no"?>
<!DOCTYPE svg PUBLIC "-//W3C//DTD SVG 20010904//EN"
 "http://www.w3.org/TR/2001/REC-SVG-20010904/DTD/svg10.dtd">
<svg version="1.0" xmlns="http://www.w3.org/2000/svg"
 width="700.000000pt" height="700.000000pt" viewBox="0 0 700.000000 700.000000"
 preserveAspectRatio="xMidYMid meet">
<metadata>
Created by potrace 1.11, written by Peter Selinger 2001-2013
</metadata>
<g transform="translate(0.000000,700.000000) scale(0.100000,-0.100000)"
fill="#000000" stroke="none">
<path d="M3399 6559 c-24 -4 -64 -9 -89 -12 -256 -31 -553 -169 -713 -332 -88
-89 -172 -200 -187 -249 -31 -97 18 -209 114 -258 53 -27 115 -25 221 6 180
52 362 48 547 -14 218 -74 353 -179 428 -333 51 -109 70 -183 84 -347 4 -47
-33 -156 -83 -239 -36 -61 -147 -217 -175 -247 -6 -7 -27 -31 -45 -54 -19 -23
-40 -48 -45 -54 -36 -38 -67 -90 -78 -130 l-12 -46 -67 0 c-96 0 -164 -15
-245 -55 -78 -38 -77 -37 -514 -468 -152 -150 -347 -339 -434 -422 -176 -167
-169 -161 -321 -301 -142 -131 -155 -143 -249 -228 -44 -39 -93 -84 -110 -100
-83 -76 -121 -110 -246 -221 -74 -66 -137 -122 -140 -125 -5 -6 -145 -130
-254 -225 -38 -33 -74 -65 -80 -70 -6 -6 -58 -51 -116 -100 -166 -142 -171
-147 -231 -203 -141 -131 -178 -332 -95 -506 32 -67 61 -99 348 -388 192 -193
331 -325 360 -342 83 -47 212 -69 301 -51 81 16 188 75 237 131 14 16 68 79
120 139 52 61 97 112 100 115 3 3 34 39 70 80 36 41 74 84 85 95 11 11 33 36
49 55 16 19 63 73 105 120 42 46 94 105 116 130 22 25 42 47 45 50 3 3 48 52
100 110 119 132 99 109 210 230 52 56 102 111 111 121 16 19 207 223 359 383
52 56 291 297 530 536 463 464 476 480 515 614 11 38 17 92 17 148 -1 76 1 88
16 88 46 0 175 100 352 270 45 44 232 196 280 227 105 71 212 112 275 107 50
-5 115 -26 115 -38 0 -6 -15 -24 -32 -41 -51 -50 -82 -129 -81 -207 2 -117 18
-139 315 -434 145 -143 276 -268 291 -278 74 -46 175 -53 269 -19 46 16 95 60
447 408 217 215 402 398 410 409 9 10 22 24 28 31 30 32 55 126 51 189 -9 115
-23 134 -314 422 -282 280 -318 307 -417 318 -55 6 -127 -9 -172 -36 l-31 -18
1 82 c2 92 -13 170 -44 229 -21 39 -97 149 -111 159 -4 3 -31 34 -61 70 -206
252 -501 502 -816 694 -177 107 -375 209 -548 279 -117 48 -138 55 -280 91
-190 49 -452 74 -586 55z m300 -443 c290 -36 653 -195 1045 -458 188 -126 411
-330 567 -518 97 -118 94 -109 95 -245 2 -135 4 -148 36 -213 51 -106 176
-196 298 -216 19 -3 53 -8 76 -11 37 -6 126 5 166 20 12 5 54 -30 159 -134
l143 -141 -34 -37 c-19 -21 -39 -40 -43 -44 -5 -3 -114 -111 -243 -239 l-234
-234 -138 136 -137 136 20 44 c33 74 44 130 41 218 -2 72 -7 96 -33 152 -43
91 -85 141 -163 193 -112 74 -233 106 -385 101 -110 -4 -130 -8 -219 -37 -118
-39 -249 -116 -391 -228 -83 -66 -294 -250 -314 -274 -21 -26 -33 -21 -87 32
-89 88 -86 85 -66 107 10 10 47 57 83 104 234 301 328 549 295 780 -3 19 -8
55 -11 80 -13 110 -51 240 -100 346 -58 126 -162 262 -273 357 -85 72 -275
176 -380 207 -23 7 -39 16 -37 20 5 8 189 5 264 -4z m-231 -2459 c119 -120
142 -147 138 -168 -3 -13 -5 -28 -5 -32 -1 -5 -180 -187 -399 -405 -336 -335
-547 -552 -747 -767 -71 -76 -232 -250 -295 -320 -36 -38 -69 -75 -75 -81 -5
-6 -46 -51 -90 -99 -44 -49 -84 -93 -90 -99 -8 -9 -110 -123 -180 -202 -5 -6
-26 -29 -45 -50 -19 -21 -85 -95 -145 -164 -60 -69 -112 -127 -115 -130 -3 -3
-48 -54 -100 -115 -52 -60 -103 -119 -113 -130 -18 -19 -22 -15 -270 235 -139
140 -258 262 -264 271 -11 14 5 32 120 130 72 63 146 126 162 140 138 121 339
299 401 354 60 54 169 152 184 165 18 16 176 158 194 175 6 6 63 57 126 115
63 57 138 125 165 151 28 26 61 57 75 69 100 87 432 405 813 780 165 162 305
300 311 306 25 24 50 32 75 23 14 -5 90 -74 169 -152z"/>
</g>
</svg>
